<!DOCTYPE svg PUBLIC "-//W3C//DTD SVG 1.1//EN" "http://www.w3.org/Graphics/SVG/1.1/DTD/svg11.dtd">
<!-- Uploaded to: SVG Repo, www.svgrepo.com, Transformed by: SVG Repo Mixer Tools -->
<svg width="189px" height="189px" viewBox="-1.6 -1.6 19.20 19.20" fill="none" xmlns="http://www.w3.org/2000/svg" stroke="#ffffff" stroke-width="0.592">
<g id="SVGRepo_bgCarrier" stroke-width="0" transform="translate(0,0), scale(1)">
<path transform="translate(-1.6, -1.6), scale(0.6)" d="M16,26.57832483947277C18.302330307143404,26.53628700458463,20.52708393687232,29.57941023946068,22.541479554695194,28.463747961865387C24.577293125563294,27.336223465118874,23.145614569726487,23.759533389628153,24.502828371089674,21.869078660341174C25.899575588309347,19.923558080047005,29.384933457839324,19.964201952759954,30.247579195714394,17.729969322059866C31.065788637491604,15.610825676757004,30.247934625506602,12.795780232129859,28.61630595558238,11.215266276632413C26.8983076394032,9.551088412947035,23.672578550374478,10.933649047796468,21.75524180006831,9.503674935338378C20.08335216185676,8.256758398038567,20.963600763263035,4.572685609501874,18.955281532677652,4.009951496965732C16.979788416879128,3.4564153118762175,15.903039472061254,7.208815883234823,13.85304663595522,7.289467793843041C10.986643920846282,7.402239336979382,7.9543086097392415,2.592823440101321,5.8350425513932365,4.526134930800074C3.6971314629064027,6.4764554472762805,8.24667664250544,10.018041009838615,7.739017578497094,12.86702261981667C7.366548886377593,14.957316144298263,3.9420867858486774,15.434339077910849,3.5205104304894093,17.515284373131482C3.1164848963681906,19.509596966071047,4.720277523244523,21.332665774193945,5.658135993425645,23.13847330560165C6.69790910402448,25.14051324422051,7.191294236616889,27.99293142176498,9.331933790425367,28.70493868157349C11.578317718291235,29.45211802903161,13.633008261116005,26.62154331581045,16,26.57832483947277" fill="#b57eec" strokewidth="0"/>
</g>
<g id="SVGRepo_tracerCarrier" stroke-linecap="round" stroke-linejoin="round" stroke="#CCCCCC" stroke-width="0.192"/>
<g id="SVGRepo_iconCarrier"> <path fill-rule="evenodd" clip-rule="evenodd" d="M6.42436 0H9.57565L14.995 16H11.8276L10.8115 13H5.18855L4.17242 16H1.005L6.42436 0ZM6.20468 10H9.79533L8 4.69952L6.20468 10Z" fill="#000000"/> </g>
</svg>